<svg xmlns="http://www.w3.org/2000/svg" viewBox="0 0 1165.13577 161.8645"><g id="PE"><g id="PE-2" data-name="PE"><path d="M7649.01068,7266.31714h-10.68612V7196.2828a41.9107,41.9107,0,0,1,12.85169-30.61405c8.66408-8.66407,18.91691-12.85168,30.75848-12.41839a39.97154,39.97154,0,0,1,29.02439,12.99612,42.01747,42.01747,0,0,1,11.986,29.89189,42.87717,42.87717,0,0,1-12.85259,31.046c-8.51964,8.51965-18.77247,12.70726-30.61314,12.274-12.12953-.43329-22.23792-5.34306-30.46871-14.58486ZM7681.7903,7164.08a28.765,28.765,0,0,0-23.24895,9.38624,32.54044,32.54044,0,0,0-9.2418,23.68223,31.97668,31.97668,0,0,0,9.2418,22.23748,28.72286,28.72286,0,0,0,21.6602,9.2418,30.20724,30.20724,0,0,0,22.23792-9.2418,31.13112,31.13112,0,0,0,9.53067-22.38191,31.70222,31.70222,0,0,0-8.66408-22.67122C7697.38528,7167.83523,7690.30994,7164.36887,7681.7903,7164.08Z" transform="translate(-6656.19286 -7106.95264)" fill="#f2f2f0" stroke="#f2f2f0" stroke-miterlimit="10" stroke-width="5"/><path d="M7816.80659,7210.433a41.76548,41.76548,0,0,1-15.59589,21.08338,42.43244,42.43244,0,0,1-24.40349,7.94192c-11.26385.14443-21.22781-3.89874-29.89189-12.274-8.66408-8.51965-13.14055-18.48361-13.285-30.1803a41.65376,41.65376,0,0,1,12.99612-31.76859c9.09737-8.95294,19.63906-13.14055,31.913-12.41839,10.975.72215,20.50565,5.19863,28.592,13.57384q11.69623,12.34618,11.69714,27.72542v5.92078h-73.93444a30.31764,30.31764,0,0,0,10.54078,20.5043,31.54946,31.54946,0,0,0,21.80553,7.94282c12.99612-.14443,22.23793-6.20965,27.86985-18.05122Zm-8.80851-20.50429a32.20644,32.20644,0,0,0-10.83055-18.628,32.9262,32.9262,0,0,0-41.15483-.28887c-5.92079,4.76534-9.53067,11.11942-11.11851,18.91691Z" transform="translate(-6656.19286 -7106.95264)" fill="#f2f2f0" stroke="#f2f2f0" stroke-miterlimit="10" stroke-width="5"/></g></g><g id="PUNTO"><path id="punto-2" data-name="punto" d="M7605.63934,7218.023a12.97429,12.97429,0,1,1-12.97843,12.97015,12.97029,12.97029,0,0,1,12.97843-12.97015" transform="translate(-6656.19286 -7106.95264)" fill="#f2f2f0" stroke="#0339a6" stroke-miterlimit="10" fill-rule="evenodd"/></g><g id="EBATES"><path d="M7202.26122,7238.15636h-14.91V7168.2959h-71.42348v55.55165H7167.683v14.30881h-54.521a11.85318,11.85318,0,0,1-4.74941-.96188,12.28943,12.28943,0,0,1-3.8478-2.58519,12.729,12.729,0,0,1-2.58519-3.72757,10.7275,10.7275,0,0,1-.96188-4.50925v-60.48126a12.071,12.071,0,0,1,.9016-4.68944,11.61654,11.61654,0,0,1,2.52523-3.78754,11.812,11.812,0,0,1,3.72757-2.52523,11.33309,11.33309,0,0,1,4.50894-.90191h78.678s5.49561.51233,7.93811,3.271a11.54249,11.54249,0,0,1,2.964,7.531Z" transform="translate(-6656.19286 -7106.95264)" fill="#f2f2f0" stroke="#f2f2f0" stroke-miterlimit="10" stroke-width="7"/><path d="M6833.84813,7163.46875a12.67711,12.67711,0,0,1,4.13623-9.68213,13.86722,13.86722,0,0,1,9.77588-3.854h85.35205a13.37,13.37,0,0,1,9.68213,3.94824,13.12692,13.12692,0,0,1,4.042,9.77588v29.7041a13.12234,13.12234,0,0,1-4.042,9.77588,13.372,13.372,0,0,1-9.68213,3.94824h-76.51611v13.26689H6945.708v21.70088h-98.13574a13.36633,13.36633,0,0,1-9.68213-3.94824,13.11172,13.11172,0,0,1-4.042-9.77637Zm90.24024,25.19189v-17.494h-67.49219v17.494Z" transform="translate(-6656.19286 -7106.95264)" fill="#f2f2f0"/><path d="M6963.75585,7110.45264h22.748v108.852h70.877v-48.564H7000.6035v-20.8081h65.80078a13.36965,13.36965,0,0,1,9.68164,3.94824,13.12777,13.12777,0,0,1,4.043,9.77588v64.67138a13.1235,13.1235,0,0,1-4.043,9.77637,13.37158,13.37158,0,0,1-9.68164,3.94824H6977.48a13.36712,13.36712,0,0,1-9.68213-3.94824,13.11172,13.11172,0,0,1-4.042-9.77637Z" transform="translate(-6656.19286 -7106.95264)" fill="#f2f2f0"/><path d="M7245.18749,7171.74072h-26.13184v-21.8081h26.13184v-28.19971h22.748v28.19971h47.752v21.8081h-47.752v48.6919h48.69239v21.62011H7258.9121a13.36741,13.36741,0,0,1-9.68262-3.94824,13.11172,13.11172,0,0,1-4.042-9.77637Z" transform="translate(-6656.19286 -7106.95264)" fill="#f2f2f0"/><path d="M7331.666,7163.46875a12.675,12.675,0,0,1,4.13574-9.68213,13.86608,13.86608,0,0,1,9.77539-3.854h85.35254a13.368,13.368,0,0,1,9.68164,3.94824,13.12326,13.12326,0,0,1,4.042,9.77588v29.7041a13.1187,13.1187,0,0,1-4.042,9.77588,13.37,13.37,0,0,1-9.68164,3.94824h-76.51562v13.26689h89.11133v21.70088h-98.13575a13.36522,13.36522,0,0,1-9.68164-3.94824,13.10811,13.10811,0,0,1-4.042-9.77637Zm90.23926,25.19189v-17.494h-67.49121v17.494Z" transform="translate(-6656.19286 -7106.95264)" fill="#f2f2f0"/><path d="M7461.94921,7220.35185h85.916v-17.02763H7473.417a13.36813,13.36813,0,0,1-9.68262-3.94727,13.11323,13.11323,0,0,1-4.042-9.77636v-26.13184a12.81544,12.81544,0,0,1,4.042-9.68213,13.5463,13.5463,0,0,1,9.68262-3.854h90.99219v21.23405h-81.96875v13.73421h74.44824a13.37342,13.37342,0,0,1,9.68262,3.94775,13.12772,13.12772,0,0,1,4.042,9.77588v29.70361a13.12269,13.12269,0,0,1-4.042,9.77637,13.37384,13.37384,0,0,1-9.68262,3.94824h-94.93945Z" transform="translate(-6656.19286 -7106.95264)" fill="#f2f2f0"/></g><g id="D"><path d="M6657.69286,7146.05273h23.312v71.62793h111.67187v-86.856H6657.69286v-22.37207H6797.001a18.5329,18.5329,0,0,1,7.42578,1.5039,19.21517,19.21517,0,0,1,6.01612,4.042,19.90217,19.90217,0,0,1,4.042,5.82812,16.77283,16.77283,0,0,1,1.50391,7.05029v94.56348a18.87328,18.87328,0,0,1-1.40967,7.332,18.16272,18.16272,0,0,1-3.94824,5.92188,18.46826,18.46826,0,0,1-5.82813,3.94824,17.71951,17.71951,0,0,1-7.0498,1.41015H6657.69286Z" transform="translate(-6656.19286 -7106.95264)" fill="#f2f2f0" stroke="#f2f2f0" stroke-miterlimit="10" stroke-width="3"/></g></svg>